<?xml version="1.0" standalone="no"?><!DOCTYPE svg PUBLIC "-//W3C//DTD SVG 1.1//EN" "http://www.w3.org/Graphics/SVG/1.1/DTD/svg11.dtd"><svg t="1764162986916" class="icon" viewBox="0 0 1057 1024" version="1.1" xmlns="http://www.w3.org/2000/svg" p-id="19388" xmlns:xlink="http://www.w3.org/1999/xlink" width="206.4453125" height="200"><path d="M704.003701 288A3 3 1080 1 0 896.003701 288 3 3 1080 1 0 704.003701 288zM958.403701 129.6c-87.488-87.488-229.312-87.488-316.8 0-35.584 35.584-56.672 80.16-63.328 126.4l0 0L373.603701 566.24c-27.52 1.408-54.784 8.416-79.968 21.024L135.747701 463.808c-36.544-28.576-89.344-22.112-117.92 14.464-28.576 36.544-22.112 89.344 14.464 117.92l155.936 121.888c-16.96 66.784 0.672 140.544 52.928 192.8 78.912 78.912 206.816 78.912 285.728 0 48.48-48.48 67.136-115.424 56.064-178.176L832.003701 509.728l0 0c46.24-6.624 90.816-27.744 126.4-63.328C1045.859701 358.912 1045.859701 217.088 958.403701 129.6zM384.003701 902.688c-74.4 0-134.688-60.32-134.688-134.688 0-0.704 0.032-1.408 0.064-2.112l66.912 52.32c15.36 12 33.568 17.824 51.68 17.824 24.96 0 49.664-11.072 66.24-32.256 28.576-36.544 22.112-89.344-14.464-117.92l-63.488-49.632c8.96-1.888 18.24-2.88 27.776-2.88 74.4 0 134.688 60.32 134.688 134.688S458.403701 902.688 384.003701 902.688zM800.003701 448c-88.352 0-160-71.648-160-160s71.648-160 160-160 160 71.648 160 160S888.355701 448 800.003701 448z" fill="#000000" p-id="19389"></path></svg>